<svg width="20" height="10" viewBox="0 0 20 10" fill="none" xmlns="http://www.w3.org/2000/svg">
<path d="M10 9.00614C9.7654 9.00654 9.53687 8.9317 9.34802 8.79262L0.444913 2.22288C0.329075 2.13733 0.231235 2.02981 0.15698 1.90647C0.0827245 1.78313 0.033508 1.64638 0.0121402 1.50404C-0.031014 1.21655 0.0418855 0.923717 0.214802 0.689945C0.387718 0.456173 0.646486 0.300615 0.934181 0.257493C1.22188 0.21437 1.51493 0.287216 1.74888 0.460004L10 6.54248L18.2511 0.460004C18.367 0.374448 18.4985 0.312529 18.6383 0.277782C18.7781 0.243035 18.9234 0.236141 19.0658 0.257493C19.2083 0.278844 19.3451 0.328025 19.4685 0.402225C19.592 0.476425 19.6996 0.574193 19.7852 0.689945C19.8708 0.805697 19.9328 0.937168 19.9676 1.07685C20.0023 1.21653 20.0092 1.36169 19.9879 1.50404C19.9665 1.64638 19.9173 1.78313 19.843 1.90647C19.7688 2.02981 19.6709 2.13733 19.5551 2.22288L10.652 8.79262C10.4631 8.9317 10.2346 9.00654 10 9.00614Z" fill="#7AE229"/>
</svg>
