<svg width="35" height="16" viewBox="0 0 35 16" fill="none" xmlns="http://www.w3.org/2000/svg">
<path d="M32.8708 15.2109C32.4697 15.2116 32.0791 15.082 31.7562 14.8413L17.651 4.31139L3.54572 14.8413C3.1458 15.1404 2.64482 15.2665 2.15301 15.1919C1.6612 15.1172 1.21883 14.8479 0.923233 14.4432C0.627633 14.0385 0.503012 13.5315 0.576784 13.0339C0.650556 12.5362 0.916678 12.0885 1.31661 11.7894L16.5364 0.415997C16.859 0.174366 17.2497 0.0439453 17.651 0.0439453C18.0523 0.0439453 18.443 0.174366 18.7655 0.415997L33.9854 11.7894C34.3031 12.0264 34.5388 12.359 34.6587 12.7396C34.7786 13.1202 34.7767 13.5294 34.6531 13.9088C34.5295 14.2882 34.2906 14.6184 33.9705 14.8522C33.6505 15.0861 33.2656 15.2116 32.8708 15.2109Z" fill="white"/>
</svg>
